<svg xmlns="http://www.w3.org/2000/svg" xmlns:xlink="http://www.w3.org/1999/xlink" width="235" zoomAndPan="magnify" viewBox="0 0 176.25 160.499994" height="214" preserveAspectRatio="xMidYMid meet" version="1.0"><defs><clipPath id="4d5f0d029f"><path d="M 0 0.0898438 L 175.503906 0.0898438 L 175.503906 159.910156 L 0 159.910156 Z M 0 0.0898438 " clip-rule="nonzero"/></clipPath><clipPath id="688fd3a6c9"><path d="M 49.757812 52.011719 L 125.933594 52.011719 L 125.933594 115.492188 L 49.757812 115.492188 Z M 49.757812 52.011719 " clip-rule="nonzero"/></clipPath></defs><g clip-path="url(#4d5f0d029f)"><path fill="#ffffff" d="M 0 0.0898438 L 176.25 0.0898438 L 176.25 168.125 L 0 168.125 Z M 0 0.0898438 " fill-opacity="1" fill-rule="nonzero"/><path fill="#ffffff" d="M 0 0.0898438 L 175.503906 0.0898438 L 175.503906 159.910156 L 0 159.910156 Z M 0 0.0898438 " fill-opacity="1" fill-rule="nonzero"/><path fill="#ffffff" d="M 0 0.0898438 L 175.503906 0.0898438 L 175.503906 159.910156 L 0 159.910156 Z M 0 0.0898438 " fill-opacity="1" fill-rule="nonzero"/></g><g clip-path="url(#688fd3a6c9)"><path fill="#000000" d="M 85 115.398438 C 81.964844 115.332031 81.847656 115.300781 80.605469 114.265625 C 80.277344 113.992188 79.457031 113.394531 78.78125 112.9375 L 77.554688 112.105469 L 64.15625 112.105469 C 52.296875 112.105469 50.714844 112.085938 50.390625 111.917969 C 49.902344 111.664062 49.75 111.242188 49.925781 110.601562 C 50.023438 110.238281 50.050781 103.957031 50.023438 87.957031 C 49.992188 70.527344 50.015625 65.757812 50.136719 65.542969 C 50.449219 64.972656 50.9375 64.839844 52.722656 64.839844 C 54.097656 64.839844 54.433594 64.875 54.703125 65.054688 C 55.332031 65.464844 55.242188 66.355469 54.539062 66.695312 C 54.367188 66.777344 53.78125 66.878906 53.230469 66.925781 C 52.347656 67 52.21875 67.039062 52.164062 67.265625 C 52.132812 67.40625 52.117188 77.074219 52.136719 88.746094 L 52.171875 109.972656 L 65.160156 110.03125 C 77.628906 110.089844 78.167969 110.101562 78.578125 110.324219 C 79.320312 110.726562 81.046875 111.921875 81.917969 112.636719 L 82.757812 113.324219 L 93.46875 113.324219 L 95.050781 111.996094 C 95.921875 111.269531 96.9375 110.527344 97.308594 110.351562 L 97.980469 110.03125 L 110.835938 110.03125 C 122.441406 110.03125 123.695312 110.011719 123.761719 109.839844 C 123.859375 109.578125 123.855469 76.628906 123.753906 71.335938 L 123.675781 67.117188 L 123.007812 67.035156 C 122.183594 66.933594 121.761719 66.570312 121.761719 65.964844 C 121.761719 65.679688 121.859375 65.460938 122.078125 65.257812 C 122.375 64.976562 122.464844 64.960938 123.742188 64.988281 C 125.203125 65.019531 125.582031 65.148438 125.789062 65.699219 C 125.859375 65.882812 125.90625 74.957031 125.910156 88.769531 L 125.917969 111.539062 L 125.667969 111.792969 C 125.414062 112.042969 125.363281 112.046875 111.777344 112.105469 L 98.136719 112.167969 L 97.292969 112.859375 C 96.828125 113.238281 96.027344 113.90625 95.511719 114.34375 C 94.746094 114.988281 94.449219 115.160156 93.925781 115.265625 C 93.152344 115.417969 88.753906 115.484375 85 115.398438 Z M 84.808594 108.742188 C 84.601562 108.566406 84.433594 108.359375 84.433594 108.28125 C 84.433594 108.199219 83.71875 107.519531 82.847656 106.765625 L 81.261719 105.398438 L 69.363281 105.398438 C 59.304688 105.398438 57.414062 105.371094 57.128906 105.222656 C 56.394531 104.84375 56.441406 106.324219 56.40625 82.753906 C 56.382812 65.628906 56.40625 61.046875 56.53125 60.675781 C 56.777344 59.917969 57.246094 59.746094 58.828125 59.820312 C 60.359375 59.890625 60.910156 60.082031 61.128906 60.617188 C 61.257812 60.925781 61.257812 61.066406 61.128906 61.378906 C 60.910156 61.902344 60.410156 62.085938 59.488281 61.972656 C 59.050781 61.917969 58.695312 61.933594 58.605469 62.003906 C 58.484375 62.097656 58.453125 66.339844 58.453125 82.46875 C 58.453125 93.660156 58.484375 102.902344 58.527344 103.007812 C 58.59375 103.183594 59.691406 103.199219 69.71875 103.199219 L 80.835938 103.195312 L 80.496094 102.894531 C 79.625 102.128906 75.886719 100.171875 73.425781 99.1875 C 70.832031 98.15625 68.585938 97.492188 66.773438 97.226562 C 65.851562 97.09375 64.964844 96.980469 64.796875 96.980469 C 64.082031 96.976562 63.574219 96.730469 63.238281 96.21875 L 62.90625 95.71875 L 62.90625 74.296875 C 62.90625 54.261719 62.917969 52.855469 63.113281 52.554688 C 63.40625 52.109375 63.957031 52.007812 64.460938 52.308594 C 64.726562 52.464844 65.308594 52.59375 66.238281 52.695312 C 68.605469 52.953125 70.929688 53.699219 72.699219 54.761719 C 73.957031 55.515625 77.121094 57.765625 78.457031 58.855469 C 79.027344 59.320312 80.242188 60.375 81.160156 61.195312 C 83.613281 63.394531 85.460938 64.707031 86.894531 65.273438 C 87.605469 65.554688 87.980469 65.460938 88.644531 64.84375 C 90.582031 63.035156 92.816406 62.183594 97.476562 61.46875 C 99.253906 61.199219 100.382812 60.878906 100.929688 60.492188 C 101.25 60.261719 101.269531 60.199219 101.269531 59.277344 C 101.269531 58.113281 101.46875 57.554688 101.953125 57.363281 C 102.363281 57.203125 112.636719 56.972656 113.0625 57.113281 C 113.53125 57.273438 113.757812 57.789062 113.828125 58.851562 L 113.894531 59.835938 L 116.359375 59.898438 C 118.726562 59.957031 118.839844 59.972656 119.105469 60.238281 L 119.382812 60.515625 L 119.414062 82.375 C 119.441406 103.003906 119.433594 104.261719 119.230469 104.664062 C 119.113281 104.898438 118.878906 105.15625 118.710938 105.242188 C 118.472656 105.359375 115.800781 105.394531 106.625 105.394531 L 94.839844 105.398438 L 93.925781 106.585938 C 93.421875 107.242188 92.890625 108.007812 92.746094 108.289062 C 92.601562 108.574219 92.378906 108.859375 92.25 108.929688 C 92.101562 109.007812 90.714844 109.054688 88.597656 109.054688 L 85.183594 109.054688 Z M 92.261719 105.304688 C 92.984375 104.351562 93.6875 103.550781 93.894531 103.445312 C 94.203125 103.289062 95.859375 103.253906 105.78125 103.203125 L 117.308594 103.140625 L 117.339844 82.675781 C 117.363281 66.335938 117.339844 62.195312 117.21875 62.148438 C 117.132812 62.117188 116.351562 62.078125 115.480469 62.0625 L 113.894531 62.035156 L 113.832031 70.035156 C 113.78125 76.746094 113.742188 78.070312 113.597656 78.246094 C 113.5 78.363281 113.148438 78.597656 112.8125 78.765625 C 111.859375 79.25 111.570312 79.105469 109.90625 77.335938 C 109.148438 76.527344 108.40625 75.789062 108.253906 75.6875 C 107.992188 75.515625 107.914062 75.546875 106.847656 76.261719 C 106.226562 76.675781 105.292969 77.351562 104.769531 77.757812 C 103.109375 79.050781 103.070312 79.074219 102.675781 78.996094 C 102.191406 78.898438 101.539062 78.246094 101.390625 77.714844 C 101.316406 77.453125 101.269531 74.421875 101.269531 70.054688 C 101.269531 64.351562 101.234375 62.828125 101.117188 62.828125 C 101.03125 62.828125 100.726562 62.914062 100.433594 63.015625 C 100.140625 63.117188 99.375 63.285156 98.726562 63.386719 C 93.230469 64.265625 91.699219 64.824219 89.953125 66.585938 L 89.070312 67.476562 L 89.070312 87.148438 C 89.070312 97.96875 89.105469 106.855469 89.152344 106.902344 C 89.195312 106.945312 89.628906 106.984375 90.109375 106.984375 L 90.988281 106.984375 Z M 86.871094 86.824219 C 86.871094 76.34375 86.832031 67.710938 86.78125 67.640625 C 86.730469 67.570312 86.113281 67.226562 85.410156 66.878906 C 83.816406 66.085938 82.402344 65.074219 80.300781 63.226562 C 77.347656 60.621094 76.46875 59.914062 74.253906 58.34375 C 70.941406 55.992188 69.339844 55.273438 66.445312 54.839844 C 65.566406 54.707031 65.195312 54.695312 65.078125 54.792969 C 64.945312 54.902344 64.917969 58.320312 64.929688 74.09375 C 64.9375 84.636719 64.980469 93.617188 65.023438 94.050781 L 65.101562 94.839844 L 65.648438 94.921875 C 69.085938 95.429688 70.597656 95.828125 73.691406 97.035156 C 79.203125 99.183594 82.566406 101.351562 85.449219 104.613281 C 86.0625 105.3125 86.636719 105.882812 86.722656 105.882812 C 86.84375 105.886719 86.875 101.992188 86.871094 86.824219 Z M 111.757812 67.652344 C 111.757812 60.527344 111.734375 59.421875 111.578125 59.289062 C 111.4375 59.171875 110.609375 59.160156 107.886719 59.234375 C 105.957031 59.289062 104.226562 59.316406 104.039062 59.300781 C 103.308594 59.234375 103.34375 58.820312 103.34375 67.664062 C 103.34375 74.304688 103.371094 75.773438 103.503906 75.828125 C 103.640625 75.878906 104.671875 75.21875 107.355469 73.359375 C 108.171875 72.792969 108.660156 73.039062 110.589844 75.003906 C 111.121094 75.546875 111.601562 75.960938 111.660156 75.925781 C 111.714844 75.890625 111.757812 72.167969 111.757812 67.652344 Z M 111.757812 67.652344 " fill-opacity="1" fill-rule="nonzero"/></g></svg>